<svg xmlns="http://www.w3.org/2000/svg" viewBox="0 0 20.63 22.05"><defs><style>.cls-1{fill:#22b573;}</style></defs><title>Asset 9</title><g id="Layer_2" data-name="Layer 2"><g id="Layer_1-2" data-name="Layer 1"><path class="cls-1" d="M19.66,7.09v14H1.05v-14H19.66m.5-.5H.55v15H20.16v-15Z"/><path class="cls-1" d="M14.07.94V6.09H.94V.94H14.07m.5-.5H.44V6.59H14.57V.44Z"/><path class="cls-1" d="M14.25.5a.72.72,0,0,1,.72.72V6.53h4a1.21,1.21,0,0,1,1.2,1.24v.52H11.68V7.75a1.23,1.23,0,0,1,1.21-1.22H15V2.77H.53V19.1H6.77a1.55,1.55,0,0,0-.63,1.24,1.53,1.53,0,0,0,.59,1.21H1.22a.72.72,0,0,1-.72-.72V1.22A.72.72,0,0,1,1.22.5h13M5.49,2.57A.84.84,0,0,0,6,2.39a.83.83,0,0,0,.51.18H9A.85.85,0,1,0,9,.88H6.52A.82.82,0,0,0,6,1.06.78.78,0,0,0,5.49.88a.86.86,0,0,0-.6.25l0,0,0,0a.88.88,0,0,0-.21.54.85.85,0,0,0,.85.85m9.12,4.18a.83.83,0,0,0-1.1.08.83.83,0,0,0,0,1.19.86.86,0,0,0,.6.25.83.83,0,0,0,.52-.19.82.82,0,0,0,.51.17h1.53a.85.85,0,1,0,0-1.69H15.14a.84.84,0,0,0-.53.19M11.54,19.1v.52h3.27a1.47,1.47,0,0,0,0,1.93H8.62a1.53,1.53,0,0,0,0-2.45h3m8.59.52v.72a1.21,1.21,0,0,1-1.2,1.21H17a1.47,1.47,0,0,0,0-1.93h3.11M14.25,0h-13A1.22,1.22,0,0,0,0,1.22V20.83a1.22,1.22,0,0,0,1.22,1.22H18.93a1.71,1.71,0,0,0,1.7-1.71V7.77A1.7,1.7,0,0,0,18.93,6H15.47V1.22A1.22,1.22,0,0,0,14.25,0ZM5.49,2.07A.34.34,0,0,1,5.25,2a.34.34,0,0,1-.11-.24.48.48,0,0,1,.11-.24.34.34,0,0,1,.24-.1.31.31,0,0,1,.24.1.34.34,0,0,1,.1.24.33.33,0,0,1-.1.24.29.29,0,0,1-.24.11Zm1,0a.35.35,0,0,1-.34-.35.34.34,0,0,1,.34-.34H9a.35.35,0,0,1,.35.34A.35.35,0,0,1,9,2.07ZM1,18.6V3.27H14.45V6H12.89a1.72,1.72,0,0,0-1.71,1.72V18.6ZM15.14,7.75a.34.34,0,0,1-.34-.34.35.35,0,0,1,.34-.35h1.53a.35.35,0,0,1,.35.35.35.35,0,0,1-.35.34Zm-1,0a.37.37,0,0,1-.24-.1.36.36,0,0,1-.11-.25.35.35,0,0,1,.11-.24.34.34,0,0,1,.48,0,.34.34,0,0,1,.1.24.35.35,0,0,1-.1.25.39.39,0,0,1-.24.1ZM12,19.12V8.79h7.75V19.12ZM7.67,21.38a1,1,0,1,1,1-1,1,1,0,0,1-1,1Zm8.24.17a1,1,0,1,1,1-1,1,1,0,0,1-1,1Z"/><path class="cls-1" d="M5.49,1.38a.35.35,0,0,0-.36.34.36.36,0,0,0,.72,0,.35.35,0,0,0-.36-.34Z"/><path class="cls-1" d="M14.11,7.08a.35.35,0,0,0-.35.35.35.35,0,0,0,.35.34.34.34,0,0,0,.34-.34.35.35,0,0,0-.34-.35Z"/></g></g></svg>