<svg xmlns="http://www.w3.org/2000/svg" viewBox="0 0 21 21"><defs><style>.cls-1{fill:#22b573;}</style></defs><title>Asset 4</title><g id="Layer_2" data-name="Layer 2"><g id="Layer_1-2" data-name="Layer 1"><path class="cls-1" d="M18.21.5A2.3,2.3,0,0,1,20.5,2.79V18.21a2.3,2.3,0,0,1-2.29,2.29H2.79A2.3,2.3,0,0,1,.5,18.21V2.79A2.3,2.3,0,0,1,2.79.5H18.21M5.88,16.29h5.18a8.24,8.24,0,0,0,2-.23,4.21,4.21,0,0,0,1.45-.68,3.35,3.35,0,0,0,1-1.26,3.76,3.76,0,0,0,.4-1.73,3.25,3.25,0,0,0-1.63-2.9,3.27,3.27,0,0,0,.59-.7,3.08,3.08,0,0,0,.48-1.66,3.33,3.33,0,0,0-.53-1.78,3.17,3.17,0,0,0-1.48-1.27A5.74,5.74,0,0,0,11,3.7H5.88V16.29M11.33,6.21a3.32,3.32,0,0,1,.77,0c.32.1.43.17.52.31a1.4,1.4,0,0,1,.2.75,1.2,1.2,0,0,1-.2.72,1.16,1.16,0,0,1-.62.4,4.81,4.81,0,0,1-1.32.13H8.4V6.21h2.93m.14,4.87a3.58,3.58,0,0,1,.92.08,1.21,1.21,0,0,1,.67.44,1.28,1.28,0,0,1,.24.79,1.53,1.53,0,0,1-.17.74,1.13,1.13,0,0,1-.41.47,2,2,0,0,1-.71.27,5.61,5.61,0,0,1-.95.08H8.4V11.08h3.07M18.21,0H2.79A2.79,2.79,0,0,0,0,2.79V18.21A2.79,2.79,0,0,0,2.79,21H18.21A2.79,2.79,0,0,0,21,18.21V2.79A2.79,2.79,0,0,0,18.21,0ZM6.38,15.79V4.2H11a5.34,5.34,0,0,1,2.13.34,2.67,2.67,0,0,1,1.25,1.07,2.78,2.78,0,0,1,.46,1.52,2.7,2.7,0,0,1-.4,1.4,2.9,2.9,0,0,1-1.22,1.06,2.93,2.93,0,0,1,1.61,1.05,2.78,2.78,0,0,1,.57,1.75A3.35,3.35,0,0,1,15,13.9,2.84,2.84,0,0,1,14.2,15a3.47,3.47,0,0,1-1.27.59,7.55,7.55,0,0,1-1.87.22Zm5-10.08H7.9V9.07h2.78a5.37,5.37,0,0,0,1.46-.15A1.62,1.62,0,0,0,13,8.33a1.66,1.66,0,0,0,.3-1,1.82,1.82,0,0,0-.28-1,1.22,1.22,0,0,0-.79-.51,3.24,3.24,0,0,0-.92-.08Zm.14,4.87H7.9v3.87h3.16a5.29,5.29,0,0,0,1-.09A2.8,2.8,0,0,0,13,14a1.79,1.79,0,0,0,.58-.66,2,2,0,0,0,.23-1,1.8,1.8,0,0,0-.33-1.08,1.62,1.62,0,0,0-.92-.62,3.62,3.62,0,0,0-1.08-.11Z"/></g></g></svg>