<svg xmlns="http://www.w3.org/2000/svg" viewBox="0 0 25 25"><defs><style>.cls-1{fill:none;stroke:#22b573;stroke-miterlimit:10;stroke-width:0.5px;}</style></defs><title>Asset 1</title><g id="Layer_2" data-name="Layer 2"><g id="Layer_1-2" data-name="Layer 1"><path class="cls-1" d="M24.72,11.68A12.24,12.24,0,0,0,13.32.28v0H11.68v0A12.24,12.24,0,0,0,.28,11.68h0v1.64h0a12.24,12.24,0,0,0,11.4,11.4v0h1.64v0a12.24,12.24,0,0,0,11.4-11.4h0V11.68ZM7.92,2.92A12.79,12.79,0,0,0,6,6.78H3.55A10.73,10.73,0,0,1,7.92,2.92ZM2.7,8.42H5.57a18.75,18.75,0,0,0-.4,3.26H1.91A10.39,10.39,0,0,1,2.7,8.42Zm-.79,4.9H5.17a18.75,18.75,0,0,0,.4,3.26H2.7A10.39,10.39,0,0,1,1.91,13.32Zm1.64,4.9H6a12.79,12.79,0,0,0,1.92,3.86A10.73,10.73,0,0,1,3.55,18.22ZM11.68,23c-1.68-.45-3.12-2.25-4-4.79h4Zm0-6.43H7.22a18.36,18.36,0,0,1-.42-3.26h4.88Zm0-4.9H6.8a18.36,18.36,0,0,1,.42-3.26h4.46Zm0-4.9h-4C8.56,4.24,10,2.44,11.68,2Zm9.77,0H19a13,13,0,0,0-1.93-3.86A10.73,10.73,0,0,1,21.45,6.78ZM13.32,2c1.67.45,3.12,2.25,4,4.79h-4Zm0,6.43h4.46a18.36,18.36,0,0,1,.42,3.26H13.32Zm0,4.9H18.2a18.36,18.36,0,0,1-.42,3.26H13.32Zm0,9.69V18.22h4C16.44,20.76,15,22.56,13.32,23Zm3.76-.93A13,13,0,0,0,19,18.22h2.44A10.73,10.73,0,0,1,17.08,22.08Zm5.22-5.5H19.43a18.75,18.75,0,0,0,.4-3.26h3.25A10.11,10.11,0,0,1,22.3,16.58Zm-2.47-4.9a18.75,18.75,0,0,0-.4-3.26H22.3a10.39,10.39,0,0,1,.79,3.26Z"/></g></g></svg>