<svg xmlns="http://www.w3.org/2000/svg" viewBox="0 0 25.44 24.87"><defs><style>.cls-1{fill:none;stroke:#22b573;stroke-miterlimit:10;stroke-width:0.5px;}</style></defs><title>Asset 8</title><g id="Layer_2" data-name="Layer 2"><g id="Layer_1-2" data-name="Layer 1"><path class="cls-1" d="M1.81,5.87c-2.17,3.24-1.9,7.45-.25,10.89,0,.08.08.16.13.24l.07.16.05.09.09.16.16.28.09.15.18.3.08.13.26.39h0l0,.07c.07.11.16.22.24.33l.09.12.22.29.09.1c.1.13.2.25.31.37h0c.1.12.21.24.32.35l.1.11.25.26.1.1.35.33h0l.06.05.31.28.13.11.27.21.14.11A3.15,3.15,0,0,0,6,22.1l.11.08,0,0,.28.2.13.08.45.29.12.07.34.2.18.1.24.13.06,0,.1,0c.12.07.25.13.38.19l.08,0,.45.19.1,0L9.5,24l.06,0,.46.16.12,0a4.34,4.34,0,0,0,.48.14c10.49,2,13.54-6.55,13.54-6.55-2.56,3.47-7.1,4.38-11.41,3.36L12.27,21l-.12,0-.46-.15-.06,0-.41-.15-.12-.05-.44-.19-.08,0-.38-.18-.1-.05A2.69,2.69,0,0,1,9.81,20l-.19-.1-.35-.2-.11-.07-.45-.28-.12-.09A3.62,3.62,0,0,1,8.27,19l-.1-.07-.31-.23-.13-.1-.27-.22-.12-.1L7,18l0,0L6.6,17.6l-.1-.1-.25-.26-.1-.1-.32-.35v0L5.5,16.4l-.08-.11A3.25,3.25,0,0,1,5.19,16l-.09-.11c-.09-.12-.18-.24-.26-.37-2.39-3.38-3.25-8-1.34-11.88m5-.5a8.1,8.1,0,0,0-.26,8A11.11,11.11,0,0,0,9,12.31a5.91,5.91,0,0,0,.81,1c.11.13.23.26.35.38l.1.1c.11.11.23.23.36.34v0h0l.42.36.1.08.44.33h0l.2.14.1.06.32.21.05,0,.29.17.1.05.2.11h0l.42.21.09,0,.35.14.14.06.32.11.14.05a3.5,3.5,0,0,0,.46.14c8.1,1.39,10-5.08,10-5.08a7.53,7.53,0,0,1-8.43,2.78l-.46-.14-.14,0-.32-.12-.15-.06-.34-.14-.09,0-.43-.2-.21-.12-.12-.06-.27-.16-.06,0-.33-.2-.1-.07-.21-.15c-.14-.1-.29-.21-.43-.33l-.1-.08A10.1,10.1,0,0,1,9.25,7.36a7.87,7.87,0,0,1,.57-6.09m4.38-.16a5.08,5.08,0,0,0-.37,4.73,6.55,6.55,0,0,0,3.68,3.57l.2.07.09,0c.1,0,.19.07.29.09,4.47.89,5.68-2.39,6-2.87-1.07,1.59-2.85,2-5,1.42L18.53,8a6,6,0,0,1-.63-.27A7.14,7.14,0,0,1,16.79,7c-2-1.55-3.17-4.49-1.9-6.89"/></g></g></svg>