<svg xmlns="http://www.w3.org/2000/svg" viewBox="0 0 24.5 24.5"><defs><style>.cls-1{fill:#22b573;}</style></defs><title>Asset 5</title><g id="Layer_2" data-name="Layer 2"><g id="Layer_1-2" data-name="Layer 1"><path class="cls-1" d="M12.25,10.25a1.89,1.89,0,0,1,1.73,2,1.89,1.89,0,0,1-1.73,2,1.89,1.89,0,0,1-1.73-2,1.89,1.89,0,0,1,1.73-2m0-.5A2.38,2.38,0,0,0,10,12.25a2.38,2.38,0,0,0,2.23,2.5,2.38,2.38,0,0,0,2.23-2.5,2.38,2.38,0,0,0-2.23-2.5Z"/><path class="cls-1" d="M17.12.5a1.79,1.79,0,0,1,1,.27c1.05.67,1.44,2.57,1.06,5.22-.08.52-.17,1-.28,1.53l-.1.44.43.14c.49.16,1,.35,1.31.49,2.24,1,3.47,2.26,3.47,3.66s-1.23,2.7-3.48,3.67a13.66,13.66,0,0,1-1.3.48l-.43.14.1.44c.11.5.2,1,.28,1.52.38,2.64,0,4.55-1.07,5.23a1.73,1.73,0,0,1-1,.27C16,24,14.31,23,12.62,21.11l-.37-.4-.37.41C10.21,23,8.57,24,7.38,24a1.79,1.79,0,0,1-1-.27c-1-.67-1.44-2.57-1.06-5.22.08-.52.17-1,.28-1.53l.1-.44-.43-.14c-.49-.16-1-.35-1.3-.49C1.73,14.94.5,13.64.5,12.25S1.73,9.55,4,8.58a13.66,13.66,0,0,1,1.3-.48L5.71,8l-.1-.44c-.11-.5-.2-1-.28-1.52C5,3.36,5.34,1.45,6.4.77a1.73,1.73,0,0,1,1-.27c1.17,0,2.81,1.05,4.5,2.89l.37.39.37-.39C14.31,1.55,16,.5,17.12.5M18.67,8l.11-.5c.14-.59.23-1.07.29-1.48.36-2.54,0-4.29-1-4.94a1.78,1.78,0,0,0-1-.28c-1.25,0-2.76,1-4.48,2.86l-.28.31.26.34a29.92,29.92,0,0,1,2,2.8l.13.21.24,0a19.62,19.62,0,0,1,3.15.54l.5.12m-12.84,0,.49-.11a22.49,22.49,0,0,1,3.16-.54l.24,0,.13-.21a29.22,29.22,0,0,1,2-2.8l.28-.33-.29-.32C10.12,1.71,8.61.75,7.36.75A1.72,1.72,0,0,0,6.4,1c-1,.65-1.33,2.4-1,5l0,.13c.07.43.15.87.26,1.34l.11.49m4.09-.73,1,0c.45,0,.89,0,1.33,0s.88,0,1.33,0l1,0L14,6.38c-.46-.68-.92-1.31-1.37-1.86l-.39-.46-.39.46c-.45.55-.91,1.18-1.37,1.86l-.57.83m2.33,9.92c.85,0,1.56,0,2.24-.09l.25,0,.13-.21c.53-.86.9-1.52,1.21-2.15s.72-1.48,1.05-2.2l.09-.2-.09-.21c-.32-.74-.67-1.49-1.05-2.22s-.76-1.43-1.19-2.14l-.13-.21-.25,0c-.66-.06-1.37-.09-2.24-.09s-1.56,0-2.24.09l-.25,0-.13.21c-.53.86-.9,1.52-1.21,2.14s-.73,1.48-1,2.22l-.09.2.09.2c.32.74.67,1.49,1,2.22s.76,1.43,1.19,2.14l.13.21L10,17c.66.06,1.37.09,2.24.09M7.18,12l.51-1,.23-.47.44-.9c.18-.38.39-.76.6-1.12l.09-.16.5-.89-1,.15C7.7,7.74,7,7.88,6.37,8l-.5.13L6,8.66c.26.9.49,1.61.75,2.3L7.18,12m10.13.05.42-1.1c.3-.79.55-1.6.75-2.29l.15-.5-.5-.13A20.49,20.49,0,0,0,16,7.64l-1-.15.47.88.7,1.31c.23.43.45.89.66,1.33h0l.5,1.06m1.43,4.19.49-.15a10.47,10.47,0,0,0,1.29-.47c2.15-.9,3.38-2.14,3.38-3.4,0-1.49-1.74-2.94-4.67-3.89l-.5-.17-.13.51A28.8,28.8,0,0,1,17.44,12l-.07.19.07.19a34.11,34.11,0,0,1,1.16,3.36l.14.49m-13,0,.13-.51a28.8,28.8,0,0,1,1.16-3.34l.07-.19-.07-.19A34.11,34.11,0,0,1,5.9,8.72l-.14-.49-.49.15A10.47,10.47,0,0,0,4,8.85C1.83,9.74.6,11,.6,12.25c0,1.49,1.74,2.94,4.67,3.89l.5.17m3.75.7-.47-.88-.18-.33c-.17-.31-.34-.63-.52-1s-.33-.65-.49-1l-.17-.34-.51-1-.41,1.07c-.3.79-.55,1.6-.75,2.29l-.15.5.5.13a20.49,20.49,0,0,0,2.17.42l1,.15M15,17l1-.15c.84-.13,1.54-.27,2.17-.43l.5-.13-.15-.49c-.26-.9-.49-1.61-.75-2.3l-.41-1.07-.51,1-.23.47-.44.9c-.18.38-.39.76-.6,1.12l-.09.16L15,17M7.36,23.75c1.25,0,2.76-1,4.48-2.86l.28-.31-.26-.34a29.92,29.92,0,0,1-2-2.8l-.13-.21-.24,0a19.62,19.62,0,0,1-3.15-.54l-.5-.12-.11.5c-.14.59-.23,1.07-.29,1.48-.36,2.54,0,4.29,1,4.94a1.78,1.78,0,0,0,1,.28m9.78,0a1.72,1.72,0,0,0,1-.28c1-.65,1.33-2.4,1-4.95l0-.13c-.07-.43-.15-.87-.26-1.34l-.11-.49-.49.11a22.49,22.49,0,0,1-3.16.54l-.24,0-.13.21a29.22,29.22,0,0,1-2,2.8l-.28.33.29.32c1.72,1.9,3.23,2.86,4.48,2.86m-4.89-6.37c-.44,0-.88,0-1.33,0l-1-.05.57.83c.46.68.92,1.31,1.37,1.86l.39.46.39-.47c.45-.54.91-1.17,1.37-1.85l.57-.83-1,.05c-.45,0-.89,0-1.33,0M17.12,0C15.75,0,14,1.14,12.25,3.05c-1.76-1.91-3.5-3-4.87-3A2.22,2.22,0,0,0,6.13.35c-1.26.81-1.71,2.85-1.3,5.72.08.5.18,1,.3,1.56a11.38,11.38,0,0,0-1.35.5C1.33,9.18,0,10.63,0,12.25s1.35,3.07,3.78,4.12c.43.18.88.35,1.35.5-.12.53-.22,1.06-.3,1.56-.41,2.89,0,4.93,1.3,5.72a2.22,2.22,0,0,0,1.25.35c1.39,0,3.13-1.14,4.87-3.05,1.76,1.91,3.5,3.05,4.87,3.05a2.28,2.28,0,0,0,1.26-.35c1.25-.81,1.7-2.85,1.29-5.72-.08-.5-.18-1-.3-1.56a11.38,11.38,0,0,0,1.35-.5c2.45-1.05,3.78-2.5,3.78-4.12s-1.33-3.07-3.78-4.12c-.43-.18-.88-.35-1.35-.5.12-.53.22-1.06.3-1.56.41-2.89,0-4.93-1.29-5.72A2.28,2.28,0,0,0,17.12,0ZM18.3,7.34a21.54,21.54,0,0,0-3.23-.55,32.27,32.27,0,0,0-2-2.85c1.45-1.6,2.92-2.69,4.11-2.69a1.17,1.17,0,0,1,.69.2c.8.52,1.07,2.14.74,4.44-.06.47-.16,1-.27,1.45Zm-12.1,0c-.11-.5-.19-1-.27-1.45C5.6,3.59,5.87,2,6.67,1.45a1.17,1.17,0,0,1,.69-.2c1.17,0,2.64,1.07,4.11,2.69a29.56,29.56,0,0,0-2,2.85,24.42,24.42,0,0,0-3.23.55Zm4.7-.68c.43-.63.88-1.25,1.35-1.82.47.57.92,1.19,1.35,1.82-.45,0-.9,0-1.35,0s-.9,0-1.35,0Zm1.35,10c-.76,0-1.49,0-2.19-.08-.43-.71-.82-1.41-1.18-2.11s-.72-1.47-1-2.19c.31-.72.66-1.47,1-2.19s.77-1.4,1.2-2.11c.72-.06,1.45-.08,2.19-.08s1.49,0,2.19.08c.43.71.82,1.41,1.18,2.11s.72,1.47,1,2.19c-.33.72-.66,1.45-1,2.19s-.77,1.4-1.2,2.11c-.72.06-1.45.08-2.19.08Zm-5-5.85C7,10,6.71,9.27,6.5,8.52a20.77,20.77,0,0,1,2.11-.41c-.23.41-.49.85-.7,1.31s-.45.92-.67,1.36Zm10,0c-.22-.46-.43-.92-.67-1.36l-.7-1.31A18.31,18.31,0,0,1,18,8.55c-.21.72-.45,1.49-.74,2.25Zm1.82,4.85a33,33,0,0,0-1.17-3.42,28.61,28.61,0,0,0,1.17-3.4c2.7.88,4.32,2.19,4.32,3.42,0,1-1.13,2.13-3.07,2.94a11.52,11.52,0,0,1-1.25.46Zm-13.66,0c-2.7-.88-4.32-2.19-4.32-3.42,0-1,1.11-2.13,3.07-2.94a11.52,11.52,0,0,1,1.25-.46,35.56,35.56,0,0,0,1.17,3.42,30.53,30.53,0,0,0-1.17,3.4Zm3.19.7A18.31,18.31,0,0,1,6.5,16c.21-.72.45-1.49.74-2.25.22.43.43.89.67,1.33s.47.9.7,1.34Zm7.28,0c.23-.41.49-.85.7-1.31s.45-.92.67-1.36c.29.77.53,1.51.74,2.26a20.77,20.77,0,0,1-2.11.41Zm1.25,6.86c-1.17,0-2.64-1.07-4.11-2.69a29.56,29.56,0,0,0,2-2.85,24.42,24.42,0,0,0,3.23-.55c.11.5.19,1,.27,1.45.33,2.3.06,3.92-.74,4.44a1.17,1.17,0,0,1-.69.2Zm-9.78,0a1.17,1.17,0,0,1-.69-.2c-.8-.52-1.07-2.14-.74-4.44.06-.47.16-.95.27-1.45a21.54,21.54,0,0,0,3.23.55,32.27,32.27,0,0,0,2,2.85c-1.45,1.6-2.92,2.69-4.11,2.69Zm4.89-5.37c.45,0,.9,0,1.35,0-.43.63-.88,1.25-1.35,1.82-.47-.57-.92-1.19-1.35-1.82.45,0,.9,0,1.35,0Z"/></g></g></svg>