<svg xmlns="http://www.w3.org/2000/svg" viewBox="0 0 27.62 17.96"><defs><style>.cls-1{fill:#22b573;}</style></defs><title>Asset 10</title><g id="Layer_2" data-name="Layer 2"><g id="Layer_1-2" data-name="Layer 1"><path class="cls-1" d="M20.67.5h0V10.82H.5V.5H20.67m0-.5H.49A.48.48,0,0,0,0,.51V11.32H21.16V.51A.47.47,0,0,0,20.67,0Z"/><path class="cls-1" d="M20.67,11.82v1.46H.5V11.82H20.67m.49-.5H0v2a.47.47,0,0,0,.49.49H20.67a.46.46,0,0,0,.49-.49v-2Z"/><path class="cls-1" d="M19.68,1.73V9.84H1.48V1.73h18.2m.5-.5H1v9.11h19.2V1.23Z"/><path class="cls-1" d="M12.79,14.28V15.5H8.38V14.28h4.41m.5-.5H7.88V16h5.41V13.78Z"/><path class="cls-1" d="M14.52,16H6.64a.49.49,0,0,0,0,1h7.88a.49.49,0,0,0,0-1Z"/><path class="cls-1" d="M10.58,12.06a.49.49,0,1,0,.49.49.49.49,0,0,0-.49-.49Z"/><path class="cls-1" d="M27.62,17.23h-14v.49c0,.23.19.24.41.24H27.2c.23,0,.42,0,.42-.24v-.49Z"/><path class="cls-1" d="M18.73,17.23H15.89s.15.24.32.24h2.21c.17,0,.31-.24.31-.24Z"/><path class="cls-1" d="M25.89,10.1v6.63H15.32V10.1H25.89m0-.5H15.31a.5.5,0,0,0-.49.49v7.14H26.39V10.09a.51.51,0,0,0-.5-.49Z"/><path class="cls-1" d="M25.15,11.08v5.65H16.06V11.08h9.09m.5-.5H15.56v6.65H25.65V10.58Z"/><path class="cls-1" d="M17.1,9.84a.25.25,0,1,0,.25.25.25.25,0,0,0-.25-.25Z"/></g></g></svg>