<svg xmlns="http://www.w3.org/2000/svg" viewBox="0 0 21 21"><defs><style>.cls-1{fill:#22b573;}</style></defs><title>Asset 7</title><g id="Layer_2" data-name="Layer 2"><g id="Layer_1-2" data-name="Layer 1"><path class="cls-1" d="M20.5.5v20H.5V.5h20M21,0H0V21H21V0Z"/><path class="cls-1" d="M15.91,10h0a2.42,2.42,0,0,1,2,.75l.16.18-.69.44a1.85,1.85,0,0,0-.85-.58,2,2,0,0,0-.54-.08,1.39,1.39,0,0,0-1.42,1,1.55,1.55,0,0,0,0,.88v.07a2.5,2.5,0,0,0,1.46,1.1l.38.16c1.87.76,2.23,1.5,2.33,2.14a2.48,2.48,0,0,1-.05,1.21,2.6,2.6,0,0,1-2.67,1.55A3.64,3.64,0,0,1,13.58,18l-.13-.15-.27-.31.76-.44a2.6,2.6,0,0,0,1.62,1,3,3,0,0,0,.42,0,2,2,0,0,0,1.59-.62,1.43,1.43,0,0,0,.25-1.27c-.19-.73-1-1.06-1.81-1.41A7.7,7.7,0,0,1,14.45,14a2.26,2.26,0,0,1-.39-3.19,2.29,2.29,0,0,1,1.2-.7l.56-.07h.09m-5,.12v5.4a4.39,4.39,0,0,1-.3,2.21,2,2,0,0,1-1.25,1,3.94,3.94,0,0,1-.9.1,3,3,0,0,1-1.53-.38,2.57,2.57,0,0,1-.74-.73L7,17.26a1.89,1.89,0,0,0,.77.7h.06a2.1,2.1,0,0,0,.66.11,1.38,1.38,0,0,0,1.31-.74,4.51,4.51,0,0,0,.19-2c0-.2,0-.41,0-.63V10.15h1m5-.62h-.13l-.62.08a2.8,2.8,0,0,0-1.49.88,2.75,2.75,0,0,0,.5,3.91c1.19.9,2.94,1.1,3.17,1.93S16.81,17.6,16,17.6a2.19,2.19,0,0,1-.36,0,2.25,2.25,0,0,1-1.53-1.16l-1.6.92a3.5,3.5,0,0,0,.72,1,4.07,4.07,0,0,0,2.86,1,3.06,3.06,0,0,0,3.15-1.91A2.84,2.84,0,0,0,19.28,16c-.15-1-.78-1.76-2.63-2.51-.64-.3-1.36-.51-1.57-1a1,1,0,0,1,0-.61.9.9,0,0,1,.94-.63,1.23,1.23,0,0,1,.39.06,1.46,1.46,0,0,1,.86.79l1.53-1a4.06,4.06,0,0,0-.5-.67,2.9,2.9,0,0,0-2.35-.9Zm-4.49.12h-2v5.08a8.1,8.1,0,0,1-.12,2.37.9.9,0,0,1-.87.49,1.74,1.74,0,0,1-.5-.08,1.69,1.69,0,0,1-.72-.75,1.32,1.32,0,0,0-.11-.18l-1.6,1a3.16,3.16,0,0,0,1.16,1.32,3.48,3.48,0,0,0,1.79.46,4.4,4.4,0,0,0,1-.11A2.5,2.5,0,0,0,11.07,18a6.13,6.13,0,0,0,.35-2.93c0-1.8,0-3.6,0-5.41Z"/></g></g></svg>