<svg xmlns="http://www.w3.org/2000/svg" viewBox="0 0 15 15"><defs><style>.cls-1{fill:#0071bc;}</style></defs><title>Cl</title><g id="Layer_2" data-name="Layer 2"><g id="Layer_1-2" data-name="Layer 1"><path class="cls-1" d="M11.5,1l1.83.53c-1.39,1.31-2.94,2.92-4.62,4.79l-.42.47.39.5c.62.77,1.37,1.79,2.22,3,1.27,1.83,1.4,2,1.45,2a1.27,1.27,0,0,0,1,.48,5.4,5.4,0,0,0,.75-.07v0c-1.33.21-3.18.61-5.62,1.23a1.36,1.36,0,0,0,.7-.6,1.91,1.91,0,0,0,.25-.94,4.9,4.9,0,0,0-.76-2.28,7.71,7.71,0,0,0-1-1.47L7.14,8.1l-.56.66c-1.22,1.44-2.13,2.56-2.71,3.35a1.09,1.09,0,0,0-.26.71,1.63,1.63,0,0,0,.46,1l-1.95-.52-.62-.14c1.23-1.21,2.93-2.89,5.06-5L7,7.76l-.31-.51L5.16,4.84v0l0,0A7.24,7.24,0,0,0,2.5,2.46a26,26,0,0,0,3.11-.9.9.9,0,0,0,0,.28,1.49,1.49,0,0,0,.15.6,17.1,17.1,0,0,0,1,1.88l.43.73.39.67L8,6.61l.69-.76a21.88,21.88,0,0,0,2.7-3.44,1.54,1.54,0,0,0,.19-.77A1.66,1.66,0,0,0,11.5,1m-.76-1c-.2.42-.32.66-.35.74s0,.18,0,.2a.67.67,0,0,1,.44.7.78.78,0,0,1-.1.41,21.05,21.05,0,0,1-2.6,3.3L7.35,3.94a16.88,16.88,0,0,1-.94-1.78,1.13,1.13,0,0,1-.09-.32c0-.12.14-.18.44-.18.12,0,.52.05,1.19.15C7.7,1,7.53.34,7.44,0A25.09,25.09,0,0,1,.52,2.06c.09.75.14,1.2.16,1.38a7.16,7.16,0,0,1,1.46-.32A6.41,6.41,0,0,1,4.53,5.24L6,7.65q-4.17,4.18-6,6c1.12.28,1.77.43,2,.47,1.09.28,1.89.5,2.39.65L5,13.91a.15.15,0,0,0,0-.18c-.44-.36-.66-.66-.66-.91a.35.35,0,0,1,.1-.24q.86-1.17,2.7-3.34A8,8,0,0,1,8,10.57a4.27,4.27,0,0,1,.66,1.92,1.13,1.13,0,0,1-.15.57c-.15.28-.57.42-1.23.42H7.05A5.23,5.23,0,0,1,7.74,15,59.83,59.83,0,0,1,15,13.44c-.14-.67-.22-1.18-.26-1.53a9.8,9.8,0,0,1-1.38.18.54.54,0,0,1-.43-.2c-.1-.13-.57-.8-1.41-2S9.9,7.61,9.27,6.82a75.62,75.62,0,0,1,5.55-5.65L10.74,0Z"/></g></g></svg>