<svg xmlns="http://www.w3.org/2000/svg" viewBox="0 0 35 35"><defs><style>.cls-1{fill:#86c6ea;}</style></defs><title>css3</title><g id="Layer_2" data-name="Layer 2"><g id="Layer_1-2" data-name="Layer 1"><path class="cls-1" d="M34.45.5l-3.1,30.58L17.48,34.49,3.65,31.09.55.5h33.9m-28,10H23.14l-.29,2.91H11.74l0,.55.11,1.07.2,2,.08.85.05.44H22.36l-.43,4.12L17.5,23.54l-4.41-1.05-.28-2.73,0-.45H7.36l.06.55L8,25.92l0,.35.35.09,9,2.2.25.05.1-.08,8.88-2.17.34-.08,0-.34.08-.66.76-7.34-.39,0h.39v-.18h0L28.88,7.26,29,6.19,29,5.64H6l0,.55.11,1.07.2,2,.08.84.05.45M35,0H0L3.19,31.49,17.48,35l14.33-3.52L35,0ZM6.93,10l-.09-.85-.2-2-.1-1.07h22l-.11,1.07-1.06,10.5v.18h0l-.75,7.34-.09.65-9,2.19h0l-9-2.2-.6-6.06h4.39l.32,3.08,4.87,1.16h0l4.89-1.18.52-5H12.68L12.59,17l-.2-2L12.29,14h11L23.7,10Zm10.57,14Z"/></g></g></svg>