<svg xmlns="http://www.w3.org/2000/svg" viewBox="0 0 39.45 25.66"><defs><style>.cls-1{fill:#86c6ea;}</style></defs><title>desktop-app</title><g id="Layer_2" data-name="Layer 2"><g id="Layer_1-2" data-name="Layer 1"><path class="cls-1" d="M29.53.5c.07,0,.2,0,.2.24V15.67H.5V.74C.5.5.64.5.7.5H29.53m0-.5H.7A.68.68,0,0,0,0,.74V16.17H30.23V.74a.68.68,0,0,0-.7-.74Z"/><path class="cls-1" d="M29.73,16.67V19c0,.15-.05.21-.2.21H.7c-.14,0-.2-.06-.2-.21V16.67H29.73m.5-.5H0V19a.67.67,0,0,0,.7.71H29.53a.67.67,0,0,0,.7-.71V16.17Z"/><path class="cls-1" d="M28.33,2.26v12H1.91v-12H28.33m.5-.5H1.41v13H28.83v-13Z"/><path class="cls-1" d="M18.48,20.19v2.16H11.75V20.19h6.73m.5-.5H11.25v3.16H19V19.69Z"/><path class="cls-1" d="M20.74,23.35a.21.21,0,0,1,.21.2.22.22,0,0,1-.21.21H9.49a.21.21,0,0,1-.2-.21.2.2,0,0,1,.2-.2H20.74m0-.5H9.49a.71.71,0,0,0,0,1.41H20.74a.71.71,0,1,0,0-1.41Z"/><path class="cls-1" d="M15.12,17.73a.2.2,0,1,1,0,.4.2.2,0,1,1,0-.4m0-.5a.7.7,0,1,0,0,1.4.7.7,0,1,0,0-1.4Z"/><path class="cls-1" d="M39,25.11v.05h-19v-.05H39m.5-.5h-20v.7c0,.34.27.35.6.35H38.86c.33,0,.59,0,.59-.35v-.7Z"/><path class="cls-1" d="M26.76,24.61H22.71s.2.35.45.35h3.15c.25,0,.45-.35.45-.35Z"/><path class="cls-1" d="M37,14.21a.23.23,0,0,1,.21.2v9.7H21.67v-9.7a.23.23,0,0,1,.21-.2H37m0-.5H21.88a.72.72,0,0,0-.71.7v10.2H37.7V14.41a.73.73,0,0,0-.71-.7Z"/><path class="cls-1" d="M36.14,15.62v8.49H22.73V15.62H36.14m.5-.5H22.23v9.49H36.64V15.12Z"/><path class="cls-1" d="M24.43,14.06a.36.36,0,0,0,0,.71.36.36,0,1,0,0-.71Z"/></g></g></svg>