<svg xmlns="http://www.w3.org/2000/svg" viewBox="0 0 35 35"><defs><style>.cls-1{fill:#86c6ea;}</style></defs><title>digital-art</title><g id="Layer_2" data-name="Layer 2"><g id="Layer_1-2" data-name="Layer 1"><path class="cls-1" d="M17.5,14.43a2.91,2.91,0,0,1,2.69,3.07,2.91,2.91,0,0,1-2.69,3.07,2.91,2.91,0,0,1-2.69-3.07,2.91,2.91,0,0,1,2.69-3.07m0-.5a3.4,3.4,0,0,0-3.19,3.57,3.4,3.4,0,0,0,3.19,3.57,3.4,3.4,0,0,0,3.19-3.57,3.4,3.4,0,0,0-3.19-3.57Z"/><path class="cls-1" d="M24.46.5A2.73,2.73,0,0,1,26,.92c1.61,1,2.18,3.74,1.62,7.68-.11.74-.25,1.47-.41,2.19l-.1.44.43.14c.7.23,1.38.5,1.89.7,3.28,1.42,5.09,3.34,5.09,5.43s-1.81,4-5.1,5.43a17.11,17.11,0,0,1-1.88.7l-.43.14.1.44c.16.72.3,1.45.41,2.19.56,3.91,0,6.64-1.62,7.68a2.73,2.73,0,0,1-1.52.42c-1.75,0-4.1-1.49-6.59-4.19l-.37-.4-.37.4c-2.47,2.7-4.81,4.19-6.59,4.19A2.73,2.73,0,0,1,9,34.08c-1.61-1-2.18-3.74-1.62-7.68.11-.74.25-1.47.41-2.19l.1-.44-.43-.14c-.7-.23-1.38-.5-1.89-.7C2.31,21.5.5,19.58.5,17.5s1.81-4,5.1-5.43a17.11,17.11,0,0,1,1.88-.7l.43-.14-.1-.44c-.16-.72-.3-1.45-.41-2.19C6.84,4.69,7.42,2,9,.92A2.73,2.73,0,0,1,10.54.5c1.75,0,4.1,1.49,6.59,4.19l.37.4.37-.4C20.36,2,22.71.5,24.46.5m2.05,10.6.12-.5A21,21,0,0,0,27,8.49c.52-3.53.06-6-1.27-6.84a2.27,2.27,0,0,0-1.26-.37c-1.73,0-3.83,1.36-6.24,4L18,5.62l.27.33a44,44,0,0,1,2.87,4l.13.21.25,0A29.61,29.61,0,0,1,26,11l.5.13m-18,0L9,11a34.49,34.49,0,0,1,4.54-.77l.25,0L13.9,10a39.27,39.27,0,0,1,2.87-4L17,5.62l-.29-.32c-1.66-1.83-4.08-4-6.24-4a2.22,2.22,0,0,0-1.25.37C7.92,2.53,7.46,5,8,8.51l0,.18c.1.61.21,1.24.36,1.91l.12.49m6.11-1,1-.05c.62,0,1.27-.07,1.9-.07s1.28,0,1.9.07l1,0-.56-.82c-.66-1-1.32-1.86-1.95-2.64l-.39-.47-.39.47c-.63.78-1.29,1.66-1.95,2.64l-.56.83m2.9,14.19c1.21,0,2.22,0,3.18-.13l.25,0,.13-.21c.75-1.23,1.28-2.17,1.72-3,.54-1.07,1-2.12,1.49-3.14l.1-.2-.09-.21c-.46-1.05-1-2.12-1.5-3.16s-1.08-2-1.7-3L21,10.89l-.24,0c-.94-.09-1.95-.13-3.18-.13s-2.22,0-3.18.13l-.25,0L14,11.1c-.75,1.23-1.28,2.17-1.72,3-.54,1-1,2.11-1.5,3.16l-.08.2.08.2c.46,1.05,1,2.12,1.49,3.16s1.08,2,1.7,3l.13.21.25,0c.93.09,1.94.13,3.18.13m-7.21-7.61.5-1,.33-.66c.2-.42.4-.85.63-1.29s.56-1.1.86-1.62l.13-.22.5-.89-1,.15a28.6,28.6,0,0,0-3.08.6l-.49.13.14.5c.37,1.28.7,2.28,1.08,3.26l.41,1.07m14.41.06.42-1.1c.44-1.13.78-2.27,1.08-3.26l.15-.49-.5-.13a26.2,26.2,0,0,0-3.08-.61l-1-.14.47.87,1,1.88c.33.62.64,1.28.93,1.92l.5,1.06M26.92,23l.48-.15a17.34,17.34,0,0,0,1.84-.67c3-1.25,4.69-2.95,4.69-4.66,0-2-2.43-4-6.52-5.36l-.5-.16-.14.51a42.52,42.52,0,0,1-1.65,4.79l-.08.19.08.19a50.85,50.85,0,0,1,1.66,4.83l.14.49M8.09,23l.14-.51a42.52,42.52,0,0,1,1.65-4.79l.08-.19-.08-.19a50.85,50.85,0,0,1-1.66-4.83L8.08,12l-.48.15a17.34,17.34,0,0,0-1.84.67c-3,1.24-4.69,2.94-4.69,4.66,0,2,2.43,4,6.52,5.36l.5.16m5.12,1-.47-.87-.25-.47c-.25-.45-.5-.92-.76-1.44s-.47-.94-.7-1.4l-.24-.49-.5-1-.41,1.07c-.44,1.13-.78,2.27-1.08,3.26l-.15.49.5.13a26.2,26.2,0,0,0,3.08.61l1,.14m8.55,0,1-.15a28.6,28.6,0,0,0,3.08-.6l.49-.13-.14-.5c-.37-1.28-.7-2.28-1.08-3.26l-.41-1.07-.5,1-.33.66c-.2.42-.4.85-.63,1.29s-.56,1.1-.86,1.62l-.13.22-.5.89M10.51,33.72c1.73,0,3.83-1.36,6.24-4l.29-.32-.27-.33a44,44,0,0,1-2.87-4l-.13-.21-.25,0A29.61,29.61,0,0,1,9,24l-.5-.13-.12.5A21,21,0,0,0,8,26.51c-.52,3.53-.06,6,1.27,6.84a2.27,2.27,0,0,0,1.26.37m14,0a2.22,2.22,0,0,0,1.25-.37c1.34-.88,1.8-3.31,1.28-6.86l0-.18c-.1-.61-.21-1.24-.36-1.91l-.12-.49L26,24a34.49,34.49,0,0,1-4.54.77l-.25,0L21.1,25a39.27,39.27,0,0,1-2.87,4l-.27.33.29.32c1.66,1.83,4.08,4,6.24,4m-7-4.85.39-.47c.63-.78,1.29-1.66,1.95-2.64l.56-.82-1,0c-.62,0-1.27.07-1.9.07s-1.28,0-1.9-.07l-1,0,.56.82c.66,1,1.32,1.86,1.95,2.64l.39.47M24.46,0c-2,0-4.44,1.63-7,4.35C15,1.63,12.5,0,10.54,0A3.22,3.22,0,0,0,8.75.5C7,1.66,6.32,4.57,6.91,8.67c.11.72.25,1.47.41,2.22a18.16,18.16,0,0,0-1.92.72C1.9,13.12,0,15.18,0,17.5s1.93,4.38,5.4,5.89c.61.25,1.25.5,1.92.72-.16.75-.3,1.5-.41,2.22-.59,4.13,0,7,1.84,8.17a3.22,3.22,0,0,0,1.79.5c2,0,4.47-1.63,7-4.35,2.52,2.72,5,4.35,7,4.35a3.22,3.22,0,0,0,1.79-.5c1.79-1.16,2.43-4.07,1.84-8.17-.11-.72-.25-1.47-.41-2.22a18.16,18.16,0,0,0,1.92-.72c3.5-1.51,5.4-3.57,5.4-5.89s-1.9-4.38-5.4-5.89c-.61-.25-1.25-.5-1.92-.72.16-.75.3-1.5.41-2.22.59-4.13-.05-7-1.84-8.17A3.22,3.22,0,0,0,24.46,0Zm1.68,10.49a29.94,29.94,0,0,0-4.61-.79,44.35,44.35,0,0,0-2.91-4.06c2.07-2.29,4.16-3.86,5.87-3.86a1.74,1.74,0,0,1,1,.29c1.14.75,1.53,3.06,1.06,6.35a19.13,19.13,0,0,1-.39,2.07Zm-17.28,0c-.17-.72-.28-1.41-.39-2.07C8,5.13,8.39,2.82,9.53,2.07a1.74,1.74,0,0,1,1-.29c1.68,0,3.78,1.54,5.87,3.86A39.44,39.44,0,0,0,13.47,9.7a34.05,34.05,0,0,0-4.61.79Zm6.71-1c.62-.91,1.26-1.79,1.93-2.6.67.81,1.31,1.69,1.93,2.6-.64,0-1.29-.07-1.93-.07s-1.29,0-1.93.07ZM17.5,23.76c-1.09,0-2.12,0-3.13-.12-.62-1-1.18-2-1.68-3s-1-2.1-1.48-3.13c.45-1,.95-2.1,1.48-3.13s1.09-2,1.71-3c1-.09,2.07-.12,3.13-.12s2.12,0,3.13.12c.61,1,1.17,2,1.68,3s1,2.1,1.48,3.13c-.48,1-.95,2.07-1.48,3.13s-1.09,2-1.71,3c-1,.09-2.07.12-3.13.12ZM10.34,15.4c-.42-1.09-.75-2.16-1.06-3.22a28.81,28.81,0,0,1,3-.6c-.34.6-.7,1.22-1,1.88s-.64,1.32-.95,1.94Zm14.32,0c-.31-.65-.62-1.31-.95-1.94l-1-1.88a28.81,28.81,0,0,1,3,.6c-.31,1-.64,2.13-1.06,3.22Zm2.6,6.92a50.61,50.61,0,0,0-1.68-4.88,43.16,43.16,0,0,0,1.68-4.85c3.85,1.25,6.17,3.13,6.17,4.88,0,1.47-1.62,3-4.38,4.2a16.47,16.47,0,0,1-1.79.65Zm-19.52,0c-3.85-1.25-6.17-3.13-6.17-4.88,0-1.47,1.59-3,4.38-4.2a16.47,16.47,0,0,1,1.79-.65,50.61,50.61,0,0,0,1.68,4.88,43.16,43.16,0,0,0-1.68,4.85Zm4.56,1a28.81,28.81,0,0,1-3-.6c.31-1,.64-2.13,1.06-3.22.31.62.62,1.28.95,1.91s.67,1.28,1,1.91Zm10.4,0c.34-.6.7-1.22,1-1.88s.64-1.32.95-1.94c.42,1.09.75,2.16,1.06,3.22a28.81,28.81,0,0,1-3,.6Zm1.79,9.8c-1.68,0-3.78-1.54-5.87-3.86a39.44,39.44,0,0,0,2.91-4.06,34.05,34.05,0,0,0,4.61-.79c.17.72.28,1.41.39,2.07.47,3.29.08,5.6-1.06,6.35a1.74,1.74,0,0,1-1,.29Zm-14,0a1.74,1.74,0,0,1-1-.29C8.39,32.18,8,29.87,8.47,26.58a19.13,19.13,0,0,1,.39-2.07,29.94,29.94,0,0,0,4.61.79,44.35,44.35,0,0,0,2.91,4.06c-2.07,2.29-4.16,3.86-5.87,3.86Zm7-7.67c.64,0,1.29,0,1.93-.07-.62.91-1.26,1.79-1.93,2.6-.67-.81-1.31-1.69-1.93-2.6.64,0,1.29.07,1.93.07Z"/></g></g></svg>