<svg xmlns="http://www.w3.org/2000/svg" viewBox="0 0 35 35"><defs><style>.cls-1{fill:#86c6ea;}</style></defs><title>javascript</title><g id="Layer_2" data-name="Layer 2"><g id="Layer_1-2" data-name="Layer 1"><path class="cls-1" d="M34.5.5v34H.5V.5h34M35,0H0V35H35V0Z"/><path class="cls-1" d="M26.51,16.38h0a4.38,4.38,0,0,1,3.56,1.35,4.31,4.31,0,0,1,.5.63l-.12.08-1.57,1a2.88,2.88,0,0,0-1.45-1.1,3,3,0,0,0-.79-.11,2,2,0,0,0-2.05,1.41,2.29,2.29,0,0,0,.06,1.29V21a3.89,3.89,0,0,0,2.27,1.64l.63.28c3.26,1.32,3.89,2.66,4.07,3.81a4.38,4.38,0,0,1-.09,2.17c-.61,2.08-2.86,2.83-4.77,2.83a6.35,6.35,0,0,1-4.39-1.57l-.22-.25a5.38,5.38,0,0,1-.68-.85L23.33,28A4.07,4.07,0,0,0,26,29.78a5.16,5.16,0,0,0,.67,0A3,3,0,0,0,29,28.92a2.08,2.08,0,0,0,.35-1.82c-.28-1.05-1.46-1.55-2.83-2.13a12.41,12.41,0,0,1-2.65-1.38,3.92,3.92,0,0,1-1.58-2.74,3.86,3.86,0,0,1,.86-3.06,4.09,4.09,0,0,1,2.18-1.28l1-.13h.18m-8,.21v2.49c0,2,0,4,0,6,0,.27,0,.54,0,.81A7.83,7.83,0,0,1,18,29.76a3.64,3.64,0,0,1-2.31,1.8,7.14,7.14,0,0,1-1.57.18,5.25,5.25,0,0,1-2.73-.7,4.71,4.71,0,0,1-1.53-1.6l1.84-1.12A3.11,3.11,0,0,0,13,29.63l0,0h0a3.26,3.26,0,0,0,1,.16A2,2,0,0,0,16,28.76a7.56,7.56,0,0,0,.28-3.15c0-.34,0-.7,0-1.06v-8h2.28m8-.71H26.3l-1,.13a4.64,4.64,0,0,0-2.48,1.47A4.57,4.57,0,0,0,23.62,24c2,1.49,4.9,1.83,5.28,3.22s-.88,2.11-2.26,2.11c-.2,0-.4,0-.61,0a3.75,3.75,0,0,1-2.55-1.95l-2.66,1.54A6.09,6.09,0,0,0,22,30.5a6.84,6.84,0,0,0,4.77,1.74c2.33,0,4.61-1,5.25-3.19a4.81,4.81,0,0,0,.11-2.4c-.26-1.59-1.3-2.94-4.39-4.19-1.07-.49-2.26-.84-2.62-1.65a1.88,1.88,0,0,1-.06-1,1.49,1.49,0,0,1,1.57-1,2.25,2.25,0,0,1,.64.09,2.44,2.44,0,0,1,1.43,1.32c1.51-1,1.51-1,2.56-1.64a6.61,6.61,0,0,0-.84-1.13,4.83,4.83,0,0,0-3.92-1.5ZM19,16.09H15.75v8.46c0,1.8.09,3.45-.2,4a1.52,1.52,0,0,1-1.46.81,2.7,2.7,0,0,1-.83-.14,2.8,2.8,0,0,1-1.2-1.25,2.89,2.89,0,0,0-.19-.3L9.2,29.26a5.19,5.19,0,0,0,1.93,2.21,5.83,5.83,0,0,0,3,.77,7.75,7.75,0,0,0,1.69-.19A4.19,4.19,0,0,0,18.45,30c.74-1.38.58-3,.58-4.88,0-3,0-6,0-9Z"/></g></g></svg>