<svg xmlns="http://www.w3.org/2000/svg" viewBox="0 0 29.47 31.5"><defs><style>.cls-1{fill:#86c6ea;}</style></defs><title>mobile-app</title><g id="Layer_2" data-name="Layer 2"><g id="Layer_1-2" data-name="Layer 1"><path class="cls-1" d="M28.3,9.92V30.29h-27V9.92h27m.5-.5H.78V30.79h28V9.42Z"/><path class="cls-1" d="M20.31,1.12v7.8H1.13V1.12H20.31m.5-.5H.63v8.8H20.81V.62Z"/><path class="cls-1" d="M20.35.5A1.25,1.25,0,0,1,21.6,1.75V9.11H27a2,2,0,0,1,1.38.58A2,2,0,0,1,29,11.1v18A1.94,1.94,0,0,1,27,31H23.73a1.88,1.88,0,0,0,0-3.18h5V12.05H16.71V27.82h5a1.88,1.88,0,0,0,0,3.18H11.36a2,2,0,1,0-.8,0H1.75A1.25,1.25,0,0,1,.5,29.75v-28A1.25,1.25,0,0,1,1.75.5h18.6m-12.51,3a.89.89,0,0,0,.72-.32h0a1,1,0,0,0,.74.33h3.49a1,1,0,1,0,0-2H9.32a1,1,0,0,0-.74.33h0a.91.91,0,0,0-.71-.32,1.05,1.05,0,0,0-.71.29l0,0,0,0a1,1,0,0,0-.25.64,1,1,0,0,0,1,1M1,27.08H16.48v-16a2,2,0,0,1,1.93-2h2.74V4.18H1v22.9M20.88,9.94h0a1,1,0,0,0-.72-.32.92.92,0,0,0-.7.3,1,1,0,0,0-.3.7,1,1,0,0,0,.3.69,1,1,0,0,0,1.39,0,.12.12,0,0,0,0-.05,1,1,0,0,0,.73.32h2.19a1,1,0,0,0,0-2H21.63a1,1,0,0,0-.75.35M20.35,0H1.75A1.76,1.76,0,0,0,0,1.75v28A1.76,1.76,0,0,0,1.75,31.5H27a2.44,2.44,0,0,0,2.43-2.44v-18A2.44,2.44,0,0,0,27,8.61H22.1V1.75A1.76,1.76,0,0,0,20.35,0ZM7.84,3a.49.49,0,0,1-.34-.14.5.5,0,0,1-.15-.35.56.56,0,0,1,.15-.34A.47.47,0,0,1,7.85,2a.41.41,0,0,1,.33.15.46.46,0,0,1,.15.34.5.5,0,0,1-.15.35A.42.42,0,0,1,7.84,3ZM9.32,3a.49.49,0,1,1,0-1h3.49a.49.49,0,1,1,0,1ZM1.47,26.58V4.68H20.65V8.61H18.41A2.46,2.46,0,0,0,16,11.07V26.58ZM21.63,11.07a.49.49,0,0,1,0-1h2.19a.49.49,0,1,1,0,1Zm-1.48,0a.51.51,0,0,1-.49-.49.49.49,0,0,1,.15-.35.47.47,0,0,1,.35-.15.46.46,0,0,1,.34.15.49.49,0,0,1,.15.35.48.48,0,0,1-.15.34.49.49,0,0,1-.35.15ZM17.21,27.32V12.55H28.27V27.32ZM11,30.54a1.48,1.48,0,1,1,1.48-1.48A1.47,1.47,0,0,1,11,30.54Zm11.78.25a1.38,1.38,0,1,1,1.37-1.38,1.38,1.38,0,0,1-1.37,1.38Z"/><path class="cls-1" d="M7.82,2.47h0m0-.5a.5.5,0,0,0-.52.49.52.52,0,0,0,1,0A.5.5,0,0,0,7.84,2Z"/><path class="cls-1" d="M20.15,10.12a.49.49,0,1,0,.5.49.49.49,0,0,0-.5-.49Z"/></g></g></svg>