<svg xmlns="http://www.w3.org/2000/svg" viewBox="0 0 35 35"><defs><style>.cls-1{fill:#86c6ea;}</style></defs><title>responsive-app</title><g id="Layer_2" data-name="Layer 2"><g id="Layer_1-2" data-name="Layer 1"><path class="cls-1" d="M30.34.5A4.16,4.16,0,0,1,34.5,4.66V30.34a4.16,4.16,0,0,1-4.16,4.16H4.66A4.16,4.16,0,0,1,.5,30.34V4.66A4.16,4.16,0,0,1,4.66.5H30.34M10.14,26.82h8.3a13.13,13.13,0,0,0,3.23-.38A6.21,6.21,0,0,0,24,25.36a5.32,5.32,0,0,0,1.56-2,6.06,6.06,0,0,0,.63-2.74,5.14,5.14,0,0,0-1-3.22,5,5,0,0,0-2-1.55,5,5,0,0,0,1.32-1.4,4.94,4.94,0,0,0,.74-2.59,5.27,5.27,0,0,0-.83-2.8,5.08,5.08,0,0,0-2.32-2,9.51,9.51,0,0,0-3.74-.6H10.14V26.82M18.89,10a5.37,5.37,0,0,1,1.38.11,1.66,1.66,0,0,1,1.05.65,2.65,2.65,0,0,1,.38,1.43,2.27,2.27,0,0,1-.4,1.39,2.22,2.22,0,0,1-1.21.8,8.52,8.52,0,0,1-2.29.23H13.66V10h5.23m.23,8.13a5.85,5.85,0,0,1,1.64.14,2.33,2.33,0,0,1,1.28.86,2.51,2.51,0,0,1,.46,1.52,2.91,2.91,0,0,1-.32,1.39,2.37,2.37,0,0,1-.8.9,3.69,3.69,0,0,1-1.3.49,9.37,9.37,0,0,1-1.64.14H13.66V18.14h5.46M30.34,0H4.66A4.65,4.65,0,0,0,0,4.66V30.34A4.65,4.65,0,0,0,4.66,35H30.34A4.65,4.65,0,0,0,35,30.34V4.66A4.65,4.65,0,0,0,30.34,0ZM10.64,26.32V7h7.68a9,9,0,0,1,3.54.56A4.59,4.59,0,0,1,24,9.35a4.77,4.77,0,0,1,.75,2.54A4.34,4.34,0,0,1,24,14.22,4.81,4.81,0,0,1,22,16a5,5,0,0,1,2.69,1.75,4.72,4.72,0,0,1,.94,2.92,5.55,5.55,0,0,1-.58,2.52A4.81,4.81,0,0,1,23.66,25a5.91,5.91,0,0,1-2.11,1,13,13,0,0,1-3.11.36ZM18.89,9.51H13.16v5.6H17.8a8.91,8.91,0,0,0,2.44-.26,2.7,2.7,0,0,0,1.47-1,2.79,2.79,0,0,0,.49-1.69,3.12,3.12,0,0,0-.46-1.7,2.13,2.13,0,0,0-1.32-.86,5.64,5.64,0,0,0-1.53-.13Zm.23,8.13h-6v6.44h5.28a9.44,9.44,0,0,0,1.73-.15,4.44,4.44,0,0,0,1.48-.55,2.87,2.87,0,0,0,1-1.09A3.33,3.33,0,0,0,23,20.66a3,3,0,0,0-.55-1.81,2.78,2.78,0,0,0-1.53-1,6.16,6.16,0,0,0-1.8-.17Z"/></g></g></svg>