<svg xmlns="http://www.w3.org/2000/svg" viewBox="0 0 35 35"><defs><style>.cls-1{fill:#86c6ea;}</style></defs><title>web-app</title><g id="Layer_2" data-name="Layer 2"><g id="Layer_1-2" data-name="Layer 1"><path class="cls-1" d="M18.17.5h0l.46,0A17,17,0,0,1,34.46,16.37l0,.26v1.54h0l0,.46A17,17,0,0,1,18.63,34.46l-.26,0H16.83l-.46,0A17,17,0,0,1,.54,18.63l0-.25V16.83h0l0-.46A17,17,0,0,1,16.37.54l.25,0h1.55m0,9.33h6.91l-.22-.66C23.52,5.28,21.31,2.67,18.8,2l-.63-.17v8m-8.25,0h6.91v-8L16.2,2c-2.51.67-4.72,3.28-6.06,7.17l-.22.66m16.51,0H31.2l-.49-.77a15.8,15.8,0,0,0-6.45-5.7l-1.85-.89,1.24,1.65a17.74,17.74,0,0,1,2.67,5.37l.11.34M3.8,9.83H8.58l.11-.35a17.79,17.79,0,0,1,2.66-5.36l1.24-1.64-1.85.88a15.86,15.86,0,0,0-6.45,5.7l-.49.77m23.7,7h5.66l0-.53A15.43,15.43,0,0,0,32,11.47l-.13-.3H26.79l.12.6a26.55,26.55,0,0,1,.57,4.58l0,.48m-9.33,0h8l0-.52a26,26,0,0,0-.62-4.75l-.08-.39H18.17v5.66m-9.33,0h8V11.17H9.56l-.09.39a26.69,26.69,0,0,0-.61,4.75l0,.52m-7,0H7.5l0-.48a26.55,26.55,0,0,1,.57-4.58l.12-.6H3.16l-.13.3A15.43,15.43,0,0,0,1.88,16.3l0,.53m25,7h5.05l.13-.3a15.5,15.5,0,0,0,1.15-4.83l0-.53H27.5l0,.48a26.55,26.55,0,0,1-.57,4.58l-.12.6m-8.62,0h7.27l.08-.39a25.8,25.8,0,0,0,.62-4.75l0-.52h-8v5.66m-8.61,0h7.27V18.17h-8l0,.52a26.69,26.69,0,0,0,.61,4.75l.09.39m-6.4,0H8.21l-.12-.6a26.55,26.55,0,0,1-.57-4.58l0-.48H1.84l0,.53A15.43,15.43,0,0,0,3,23.53l.13.3m19.26,8.69,1.84-.88a15.8,15.8,0,0,0,6.45-5.7l.49-.77H26.43l-.11.34a18.1,18.1,0,0,1-2.67,5.37l-1.23,1.64m-4.25.65L18.8,33c2.51-.67,4.72-3.29,6.06-7.17l.22-.66H18.17v8m-1.34,0v-8H9.92l.22.66c1.34,3.88,3.55,6.5,6.06,7.17l.63.17m-4.24-.65-1.24-1.64a17.79,17.79,0,0,1-2.66-5.36l-.12-.35H3.8l.49.77a15.8,15.8,0,0,0,6.45,5.7l1.85.88M18.67,0H16.33V0A17.49,17.49,0,0,0,0,16.33H0v2.34H0A17.5,17.5,0,0,0,16.33,35v0h2.34v0A17.51,17.51,0,0,0,35,18.67h0V16.33h0A17.5,17.5,0,0,0,18.67,0V0Zm0,9.33V2.48c2.39.64,4.46,3.22,5.71,6.85Zm-8.05,0c1.25-3.63,3.31-6.21,5.71-6.85V9.33Zm16.17,0A18.28,18.28,0,0,0,24,3.81a15.28,15.28,0,0,1,6.24,5.52Zm-22.07,0A15.28,15.28,0,0,1,11,3.81,18.51,18.51,0,0,0,8.21,9.33Zm23.26,7a27.61,27.61,0,0,0-.58-4.66h4.1a14.8,14.8,0,0,1,1.12,4.66Zm-9.31,0V11.67H25a26.12,26.12,0,0,1,.6,4.66Zm-9.31,0a25.24,25.24,0,0,1,.6-4.66h6.37v4.66Zm-7,0A14.8,14.8,0,0,1,3.5,11.67H7.6A27.61,27.61,0,0,0,7,16.33Zm25,7A27.61,27.61,0,0,0,28,18.67h4.64a14.8,14.8,0,0,1-1.12,4.66Zm-8.73,0V18.67h7a25.24,25.24,0,0,1-.6,4.66Zm-8.71,0a25.24,25.24,0,0,1-.6-4.66h7v4.66Zm-6.46,0a14.8,14.8,0,0,1-1.12-4.66H7a27.61,27.61,0,0,0,.58,4.66ZM24,31.19a18.63,18.63,0,0,0,2.75-5.52h3.49A15.28,15.28,0,0,1,24,31.19Zm-5.37,1.33V25.67h5.71c-1.25,3.63-3.32,6.21-5.71,6.85Zm-2.34,0c-2.4-.64-4.46-3.22-5.71-6.85h5.71v6.85ZM11,31.19a15.28,15.28,0,0,1-6.24-5.52H8.21A18.51,18.51,0,0,0,11,31.19Z"/></g></g></svg>